<?xml version="1.0" encoding="UTF-8"?>
<svg width="24px" height="24px" viewBox="0 0 24 24" version="1.1" xmlns="http://www.w3.org/2000/svg" xmlns:xlink="http://www.w3.org/1999/xlink">
    <!-- Generator: Sketch 50.2 (55047) - http://www.bohemiancoding.com/sketch -->
    <title>Group</title>
    <desc>Created with Sketch.</desc>
    <defs></defs>
    <g id="Page-1" stroke="none" stroke-width="1" fill="none" fill-rule="evenodd">
        <g id="Artboard" transform="translate(-35.000000, -32.000000)">
            <rect id="Rectangle-6-Copy-10" fill="#FFFFFF" x="0" y="27" width="94" height="49"></rect>
            <g id="Group" transform="translate(35.000000, 32.000000)">
                <rect id="Rectangle-9" fill="#FFFFFF" x="0" y="0" width="24" height="24"></rect>
                <g id="村子,房子,屋子-copy-2" transform="translate(2.000000, 2.000000)" fill-rule="nonzero">
                    <path d="M11.9919738,15.3310267 L8.03615564,15.3310267 C6.3654946,15.3310267 4.98287857,13.9454362 4.98287857,12.271181 L4.98287857,8.07592088 C4.98287857,6.40166569 6.3654946,5.01607518 8.03615564,5.01607518 L11.9919738,5.01607518 C13.6626348,5.01607518 15.0452508,6.40166569 15.0452508,8.07592088 L15.0452508,12.271181 C15.0452508,13.9454362 13.6818378,15.3310267 11.9919738,15.3310267 Z" id="Shape" fill="#FFFFFF"></path>
                    <path d="M11.4542897,13.2718853 L8.57383966,13.2718853 C7.65209564,13.2718853 6.92238163,12.5213571 6.92238163,11.6168744 L6.92238163,8.73022749 C6.92238163,7.80650049 7.67129865,7.07521662 8.57383966,7.07521662 L11.4542897,7.07521662 C12.3760338,7.07521662 13.1057478,7.82574481 13.1057478,8.73022749 L13.1057478,11.6168744 C13.1057478,12.5406014 12.3760338,13.2718852 11.4542897,13.2718853 Z M8.57383966,8.22987537 C8.30499767,8.22987537 8.07456166,8.46080712 8.07456166,8.73022749 L8.07456166,11.6168744 C8.07456166,11.8862947 8.30499767,12.1172265 8.57383966,12.1172265 L11.4542897,12.1172265 C11.7231317,12.1172265 11.9535677,11.8862948 11.9535677,11.6168744 L11.9535677,8.73022749 C11.9535677,8.46080712 11.7231317,8.22987537 11.4542897,8.22987537 L8.57383966,8.22987537 Z" id="Shape" fill="#A5A5A5"></path>
                    <path d="M19.4235349,7.30614837 C19.3083169,7.30614837 19.1930989,7.26765975 19.0970839,7.20992681 L10.3405157,1.26343423 C10.1484857,1.14796836 9.87964368,1.14796836 9.6876137,1.26343423 L0.931045485,7.20992681 C0.662203488,7.38312563 0.31654948,7.32539269 0.124519466,7.0559723 C-0.0675105485,6.7865519 0.00930146273,6.4401543 0.27814346,6.24771117 L9.03471167,0.301218586 C9.61080169,-0.0836676558 10.3981247,-0.0836676558 10.9742147,0.301218586 L19.7307829,6.24771117 C19.9996249,6.42090998 20.0572339,6.78655193 19.8844069,7.0559723 C19.788392,7.20992679 19.615565,7.30614837 19.4235349,7.30614837 Z M14.6995968,18.9874461 L5.32853257,18.9874461 C3.21620253,18.9874461 1.48793249,17.3324352 1.48793249,15.2925381 L1.48793249,8.1144095 C1.48793249,7.78725619 1.7375715,7.53708012 2.0640225,7.53708012 C2.3904735,7.53708012 2.64011252,7.78725619 2.64011252,8.1144095 L2.64011252,15.2925381 C2.64011252,16.6973729 3.84990155,17.8327873 5.32853257,17.8327873 L14.6995968,17.8327873 C16.1782278,17.8327873 17.3880169,16.6973729 17.3880169,15.2925381 L17.3880169,8.1144095 C17.3880169,7.78725619 17.6376559,7.53708012 17.9641069,7.53708012 C18.2905579,7.53708012 18.5401969,7.78725619 18.5401969,8.1144095 L18.5401969,15.2925381 C18.5401969,17.3324352 16.8119269,18.9874461 14.6995968,18.9874461 Z" id="Shape" fill="#A5A5A5"></path>
                </g>
            </g>
        </g>
    </g>
</svg>