<?xml version="1.0" encoding="UTF-8"?>
<svg width="24px" height="24px" viewBox="0 0 24 24" version="1.1" xmlns="http://www.w3.org/2000/svg" xmlns:xlink="http://www.w3.org/1999/xlink">
    <!-- Generator: Sketch 50.2 (55047) - http://www.bohemiancoding.com/sketch -->
    <title>Group 3</title>
    <desc>Created with Sketch.</desc>
    <defs></defs>
    <g id="Page-1" stroke="none" stroke-width="1" fill="none" fill-rule="evenodd">
        <g id="Artboard" transform="translate(-223.000000, -32.000000)">
            <rect id="Rectangle-6-Copy-11" fill="#FFFFFF" x="188" y="27" width="94" height="49"></rect>
            <g id="Group-3" transform="translate(223.000000, 32.000000)">
                <rect id="Rectangle-9-Copy-2" fill="#FFFFFF" x="0" y="0" width="24" height="24"></rect>
                <g id="消息,对话框-copy-2" transform="translate(2.000000, 3.000000)" fill-rule="nonzero">
                    <path d="M14.1481195,10.9557361 L5.82429426,10.9557361 C4.12939771,10.9557361 2.75464828,9.51002048 2.75464828,7.7276314 L2.75464828,6.06406826 C2.75464828,4.28167918 4.12939771,2.83596359 5.82429426,2.83596359 L14.1481195,2.83596359 C15.8430161,2.83596359 17.2177655,4.28167918 17.2177655,6.06406826 L17.2177655,7.70782707 C17.2177655,9.49021615 15.8430161,10.955736 14.1481195,10.9557361 Z" id="Shape" fill="#FFFFFF"></path>
                    <path d="M9.9862069,16.9960546 C9.62839539,16.9960546 9.28941608,16.7980114 9.11992643,16.4613379 L7.63218392,13.7679499 L3.33844599,13.7679499 C1.51172414,13.7679499 0.00514943448,12.2034084 0.00514943448,10.2625847 L0.00514943448,3.50931058 C0.00514943448,1.58829123 1.49289197,0.00394539249 3.33844599,0.00394539249 L16.6528,0.00394539249 C18.4795218,0.00394539249 19.9860966,1.56848693 19.9860966,3.50931058 L19.9860966,10.2823891 C19.9860966,12.2034084 18.498354,13.7877543 16.6528,13.7877543 L12.3402299,13.7877543 L10.8524874,16.4811422 C10.6829977,16.7980114 10.3440184,16.9960546 9.9862069,16.9960546 Z M3.33844599,1.19220478 C2.13318621,1.19220478 1.13508047,2.22202959 1.13508047,3.50931058 L1.13508047,10.2823891 C1.13508047,11.5498658 2.11435404,12.5994949 3.33844599,12.5994949 L7.70751263,12.5994949 C8.06532414,12.5994949 8.40430345,12.7975381 8.5737931,13.1342116 L9.9862069,15.7087736 L11.3986207,13.1342116 C11.5869425,12.8173424 11.9070897,12.5994949 12.2649012,12.5994949 L16.6339678,12.5994949 C17.8392276,12.5994949 18.8373333,11.5696701 18.8373333,10.2823891 L18.8373333,3.50931058 C18.8373333,2.24183389 17.8580598,1.19220478 16.6339678,1.19220478 L3.33844599,1.19220478 Z" id="Shape" fill="#A5A5A5"></path>
                    <path d="M9.9862069,7.84645734 C9.47773793,7.84645734 9.06342988,7.41076222 9.06342988,6.8760455 C9.06342988,6.34132877 9.47773793,5.90563366 9.9862069,5.90563368 C10.4946759,5.90563371 10.9089839,6.3413288 10.9089839,6.8760455 C10.9089839,7.41076219 10.4946759,7.84645734 9.9862069,7.84645734 Z M9.9862069,6.65819795 C9.87321379,6.65819795 9.77905288,6.75721956 9.77905288,6.8760455 C9.77905288,6.99487144 9.87321379,7.09389304 9.9862069,7.09389307 C10.0992,7.0938931 10.1933609,6.99487146 10.1933609,6.8760455 C10.1933609,6.75721953 10.0992,6.65819795 9.9862069,6.65819795 Z M14.1292874,7.84645734 C13.6208184,7.84645734 13.2065103,7.41076222 13.2065103,6.8760455 C13.2065103,6.34132877 13.6208184,5.90563366 14.1292874,5.90563368 C14.6377563,5.90563371 15.0520644,6.3413288 15.0520644,6.8760455 C15.0520643,7.41076219 14.6377563,7.84645734 14.1292874,7.84645734 Z M14.1292874,6.65819795 C14.0162943,6.65819795 13.9221334,6.75721956 13.9221333,6.8760455 C13.9221333,6.99487144 14.0162942,7.09389304 14.1292874,7.09389307 C14.2422805,7.0938931 14.3364414,6.99487146 14.3364414,6.8760455 C14.3364414,6.75721953 14.2422805,6.65819795 14.1292874,6.65819795 Z M5.84312643,7.84645734 C5.33465746,7.84645734 4.92034941,7.41076222 4.92034943,6.8760455 C4.92034946,6.34132877 5.33465749,5.90563366 5.84312643,5.90563368 C6.35159537,5.90563371 6.76590345,6.3413288 6.76590345,6.8760455 C6.76590345,7.41076219 6.35159539,7.84645734 5.84312643,7.84645734 Z M5.84312643,6.65819795 C5.73013332,6.65819795 5.63597241,6.75721956 5.63597241,6.8760455 C5.63597241,6.99487144 5.73013332,7.09389304 5.84312643,7.09389307 C5.95611953,7.0938931 6.05028044,6.99487146 6.05028047,6.8760455 C6.0502805,6.75721953 5.95611956,6.65819795 5.84312643,6.65819795 Z" id="Shape" fill="#A5A5A5"></path>
                </g>
            </g>
        </g>
    </g>
</svg>