<?xml version="1.0" encoding="UTF-8"?>
<svg width="24px" height="24px" viewBox="0 0 24 24" version="1.1" xmlns="http://www.w3.org/2000/svg" xmlns:xlink="http://www.w3.org/1999/xlink">
    <!-- Generator: Sketch 50.2 (55047) - http://www.bohemiancoding.com/sketch -->
    <title>Group 7</title>
    <desc>Created with Sketch.</desc>
    <defs></defs>
    <g id="Page-1" stroke="none" stroke-width="1" fill="none" fill-rule="evenodd">
        <g id="Artboard" transform="translate(-129.000000, -93.000000)">
            <rect id="Rectangle-6-Copy-17" fill="#FFFFFF" x="94" y="88" width="94" height="49"></rect>
            <g id="Group-7" transform="translate(129.000000, 93.000000)">
                <rect id="Rectangle-9-Copy" fill="#FFFFFF" x="0" y="0" width="24" height="24"></rect>
                <g id="规则中心-copy-3" transform="translate(2.000000, 2.000000)" fill-rule="nonzero">
                    <path d="M9.70209314,13.8147526 C9.70209314,16.1276035 11.5536898,18.0025397 13.8377501,18.0025397 C16.1218104,18.0025397 17.9734071,16.1276035 17.9734071,13.8147526 C17.9734071,11.5019016 16.1218104,9.62696546 13.8377501,9.62696546 C11.5536898,9.62696546 9.70209314,11.5019016 9.70209314,13.8147526 Z" id="Shape" fill="#00D9B4"></path>
                    <path d="M11.6282895,5.2861998 L3.81019826,5.2861998 C3.50804979,5.2861998 3.26255419,5.03760969 3.26255416,4.73165266 C3.26255414,4.42569563 3.50804979,4.17710552 3.81019826,4.17710552 L11.6282895,4.17710552 C11.930438,4.17710552 12.1759336,4.42569563 12.1759336,4.73165266 C12.1759336,5.03760969 11.930438,5.2861998 11.6282895,5.2861998 Z M6.15184877,9.03417367 L3.94238819,9.03417367 C3.64023972,9.03417367 3.39474412,8.78558356 3.39474412,8.47962653 C3.39474412,8.1736695 3.64023975,7.92507938 3.94238819,7.92507936 L6.13296451,7.92507936 C6.43511297,7.92507936 6.68060858,8.17366947 6.68060858,8.47962653 C6.68060858,8.78558359 6.45399723,9.03417367 6.15184877,9.03417367 Z" id="Shape" fill="#000000"></path>
                    <path d="M6.17073306,18.5188422 L3.16813278,18.5188422 C1.43077917,18.5188422 0.0144582849,17.0846685 0.0144582849,15.3254155 L0.0144582849,3.20186742 C0.0144582849,1.4426144 1.43077917,0.00844072829 3.16813278,0.00844070028 L12.1570493,0.00844070028 C13.8944029,0.00844070028 15.3107238,1.44261437 15.3107238,3.20186742 L15.3107238,4.73165266 C15.3107238,5.03760972 15.0652282,5.2861998 14.7630798,5.2861998 C14.4609313,5.2861998 14.2154357,5.03760969 14.2154357,4.73165266 L14.2154357,3.20186742 C14.2154357,2.05452849 13.290106,1.11753501 12.1570493,1.11753501 L3.16813278,1.11753501 C2.03507607,1.11753501 1.10974642,2.05452849 1.10974642,3.20186742 L1.10974642,15.3254155 C1.10974642,16.4727544 2.03507607,17.4097479 3.16813278,17.4097479 L6.17073306,17.4097479 C6.47288152,17.4097479 6.71837712,17.658338 6.71837712,17.964295 C6.71837712,18.2702521 6.47288149,18.5188422 6.17073306,18.5188422 Z" id="Shape" fill="#000000"></path>
                    <path d="M13.8377501,19.9721382 C10.43858,19.9721382 7.68147535,17.1802801 7.68147533,13.7382633 C7.6814753,10.2962465 10.43858,7.50438843 13.8377501,7.50438843 C17.2369202,7.50438843 19.9940249,10.2962465 19.9940249,13.7382633 C19.9940249,17.1802801 17.2369202,19.9721382 13.8377501,19.9721382 Z M13.8377501,8.63260504 C11.0428769,8.63260504 8.77676349,10.9272829 8.77676349,13.7573856 C8.77676349,16.5874883 11.0428769,18.8821662 13.8377501,18.8821662 C16.6326233,18.8821662 18.8987368,16.5874883 18.8987367,13.7573856 C18.8987367,10.9272829 16.6326233,8.63260504 13.8377501,8.63260504 Z" id="Shape" fill="#000000"></path>
                    <path d="M13.1579161,15.8034734 C13.0068419,15.8034734 12.8746519,15.7461064 12.7802305,15.6504949 L11.5716367,14.4266667 C11.3639097,14.2163212 11.3639097,13.8529972 11.5716367,13.6426517 C11.7793638,13.4323063 12.1381651,13.4323063 12.3458921,13.6426517 L13.1768004,14.4840336 L15.4995666,12.1319888 C15.7072937,11.9216433 16.066095,11.9216433 16.273822,12.1319888 C16.4815491,12.3423343 16.4815491,12.7056583 16.273822,12.9160037 L13.5544859,15.6696172 C13.4411803,15.7461064 13.3089903,15.8034734 13.1579161,15.8034734 Z" id="Shape" fill="#000000"></path>
                </g>
            </g>
        </g>
    </g>
</svg>