<?xml version="1.0" encoding="UTF-8"?>
<svg width="24px" height="24px" viewBox="0 0 24 24" version="1.1" xmlns="http://www.w3.org/2000/svg" xmlns:xlink="http://www.w3.org/1999/xlink">
    <!-- Generator: Sketch 50.2 (55047) - http://www.bohemiancoding.com/sketch -->
    <title>Group 4</title>
    <desc>Created with Sketch.</desc>
    <defs></defs>
    <g id="Page-1" stroke="none" stroke-width="1" fill="none" fill-rule="evenodd">
        <g id="Artboard" transform="translate(-317.000000, -32.000000)">
            <rect id="Rectangle-6-Copy-13" fill="#FFFFFF" x="282" y="27" width="94" height="49"></rect>
            <g id="Group-4" transform="translate(317.000000, 32.000000)">
                <rect id="Rectangle-9-Copy-3" fill="#FFFFFF" x="0" y="0" width="24" height="24"></rect>
                <g id="个人,小人-copy-4" transform="translate(3.000000, 2.000000)" fill-rule="nonzero">
                    <path d="M4.21814814,11.8230303 C4.21814811,13.7630908 5.2301578,15.5557805 6.87296294,16.5258108 C8.51576807,17.495841 10.5397875,17.495841 12.1825926,16.5258108 C13.8253978,15.5557805 14.8374074,13.7630908 14.8374074,11.8230303 C14.8374074,8.82395676 12.4602053,6.39272727 9.52777778,6.39272727 C6.5953503,6.39272727 4.21814814,8.82395676 4.21814814,11.8230303 Z" id="Shape" fill="#FFFFFF"></path>
                    <path d="M9.52777778,10.7175758 C6.64540742,10.7175758 4.294,8.31272727 4.294,5.36484849 C4.294,2.41696972 6.64540742,0.0121212216 9.52777778,0.0121212216 C12.4101481,0.0121212216 14.7615556,2.41696972 14.7615556,5.36484849 C14.7615556,8.31272727 12.4101481,10.7175758 9.52777778,10.7175758 Z M9.52777778,1.17575759 C7.27118519,1.17575759 5.43177778,3.05696972 5.43177778,5.36484849 C5.43177778,7.67272727 7.27118519,9.5539394 9.52777778,9.5539394 C11.7843704,9.5539394 13.6237778,7.67272727 13.6237778,5.36484849 C13.6237778,3.05696972 11.7843704,1.17575759 9.52777778,1.17575759 Z M18.4403704,19.9878788 C18.1938518,19.9878788 17.9662963,19.8327273 17.8904444,19.5806061 C16.7337037,15.8375758 13.3772593,13.3163636 9.52777778,13.3163636 C5.67829631,13.3163636 2.32185186,15.8375758 1.14614814,19.5806061 C1.05133333,19.8909091 0.728962944,20.0460606 0.425555556,19.9684849 C0.122148139,19.8715152 -0.0485185278,19.5418182 0.0462963056,19.2315151 C1.35474075,15.0036364 5.16629631,12.1527273 9.50881481,12.1527273 C13.8513333,12.1527273 17.6628889,15.0036364 18.9713333,19.2315151 C19.0661481,19.5418182 18.8954815,19.8715151 18.5920741,19.9684849 C18.5541482,19.9878788 18.4972593,19.9878788 18.4403704,19.9878788 Z" id="Shape" fill="#A5A5A5"></path>
                </g>
            </g>
        </g>
    </g>
</svg>