<?xml version="1.0" encoding="UTF-8"?>
<svg width="24px" height="24px" viewBox="0 0 24 24" version="1.1" xmlns="http://www.w3.org/2000/svg" xmlns:xlink="http://www.w3.org/1999/xlink">
    <!-- Generator: Sketch 50.2 (55047) - http://www.bohemiancoding.com/sketch -->
    <title>Group 3</title>
    <desc>Created with Sketch.</desc>
    <defs></defs>
    <g id="Page-1" stroke="none" stroke-width="1" fill="none" fill-rule="evenodd">
        <g id="个人中心-copy-4" transform="translate(-26.000000, -786.000000)">
            <g id="Group-3" transform="translate(26.000000, 786.000000)">
                <rect id="Rectangle-8" fill="#FFFFFF" x="0" y="0" width="24" height="24"></rect>
                <circle id="Oval-Copy-7" fill="#00D9B4" cx="12.5" cy="12.5" r="4.5"></circle>
                <g id="购买渠道" transform="translate(3.000000, 4.000000)" fill="#000000" fill-rule="nonzero">
                    <path d="M9.4970272,16.9253247 C7.00460846,16.9253156 4.7579253,15.4158402 3.80567087,13.1014822 C2.85341643,10.7871241 3.38335823,8.12423343 5.14813325,6.35577803 C6.91290826,4.58732264 9.56453448,4.06201027 11.8653019,5.02504305 C14.1660693,5.98807584 15.6623078,8.24956096 15.6556122,10.7538961 C15.6419615,14.1630709 12.8899923,16.9207792 9.4970272,16.9253247 Z M9.4970272,5.79597402 C6.78317556,5.79598945 4.58232245,8.00491535 4.57928939,10.7317502 C4.57625633,13.4585851 6.77218998,15.6724485 9.48603481,15.678559 C12.1998796,15.6846696 14.405666,13.4807173 14.4147959,10.7538961 C14.4125153,8.02584194 12.2120906,5.81488893 9.4970272,5.81259741 L9.4970272,5.79597402 Z" id="Shape"></path>
                    <path d="M7.76402042,1.7564935 C7.76394968,2.37864699 8.09424344,2.95357093 8.63046666,3.26466819 C9.16668988,3.57576546 9.82736455,3.57576546 10.3635878,3.26466819 C10.899811,2.95357093 11.2301047,2.37864699 11.230034,1.7564935 C11.2301047,1.13434001 10.899811,0.559416072 10.3635878,0.248318809 C9.82736455,-0.062778455 9.16668988,-0.062778455 8.63046666,0.248318809 C8.09424344,0.559416072 7.76394968,1.13434001 7.76402042,1.7564935 Z" id="Shape"></path>
                    <path d="M15.5232585,15.2546753 C15.5231879,15.875344 15.8526933,16.4488959 16.3876368,16.7592507 C16.9225803,17.0696056 17.5816782,17.0696056 18.1166217,16.7592507 C18.6515652,16.4488959 18.9810707,15.875344 18.981,15.2546753 C18.9810707,14.6340066 18.6515652,14.0604547 18.1166217,13.7500999 C17.5816782,13.439745 16.9225803,13.439745 16.3876368,13.7500999 C15.8526933,14.0604547 15.5231879,14.6340066 15.5232585,15.2546753 Z" id="Shape"></path>
                    <path d="M0.013054425,15.2546753 C0.01298377,15.875344 0.342489219,16.4488959 0.877432706,16.7592507 C1.41237619,17.0696056 2.07147414,17.0696056 2.60641763,16.7592507 C3.14136112,16.4488959 3.47086657,15.875344 3.47079591,15.2546753 C3.47086657,14.6340066 3.14136112,14.0604547 2.60641763,13.7500999 C2.07147414,13.439745 1.41237619,13.439745 0.877432706,13.7500999 C0.342489219,14.0604547 0.01298377,14.6340066 0.013054425,15.2546753 Z" id="Shape"></path>
                    <path d="M9.4970272,5.67545455 C9.15438524,5.67545455 8.87661905,5.39635933 8.87661905,5.05207793 L8.87661905,3.38974025 C8.87661905,3.04545885 9.15438524,2.76636363 9.49702721,2.76636363 C9.83966918,2.76636363 10.1174354,3.04545885 10.1174354,3.38974025 L10.1174354,5.05207793 C10.1174354,5.21740769 10.0520711,5.37596598 9.93572203,5.49287177 C9.81937293,5.60977756 9.66156968,5.67545455 9.4970272,5.67545455 Z M17.2521292,15.878052 C17.1434819,15.8765213 17.0369049,15.8479648 16.9419252,15.7949351 L13.9846462,14.0785714 C13.6876899,13.9064307 13.5858423,13.5250006 13.7571633,13.2266234 C13.9284843,12.9282462 14.3080981,12.8259112 14.6050544,12.998052 L17.5623333,14.7144156 C17.8059335,14.855312 17.9248268,15.143161 17.8521021,15.4159658 C17.7793774,15.6887705 17.533206,15.8783664 17.2521292,15.878052 Z M1.74192518,15.878052 C1.46084846,15.8783664 1.21467705,15.6887705 1.14195231,15.4159658 C1.06922758,15.143161 1.18812093,14.855312 1.43172109,14.7144156 L4.27732653,13.0520779 C4.46942362,12.9407224 4.70605322,12.9407986 4.89807925,13.0522778 C5.09010528,13.163757 5.20835441,13.3697028 5.20828334,13.5925375 C5.20821227,13.8153722 5.0898318,14.0212419 4.8977347,14.1325974 L2.05212925,15.7949351 C1.95714957,15.8479648 1.85057254,15.8765213 1.74192518,15.878052 Z" id="Shape"></path>
                </g>
            </g>
        </g>
    </g>
</svg>