<?xml version="1.0" encoding="UTF-8"?>
<svg width="24px" height="24px" viewBox="0 0 24 24" version="1.1" xmlns="http://www.w3.org/2000/svg" xmlns:xlink="http://www.w3.org/1999/xlink">
    <!-- Generator: Sketch 50.2 (55047) - http://www.bohemiancoding.com/sketch -->
    <title>Group 2</title>
    <desc>Created with Sketch.</desc>
    <defs></defs>
    <g id="Page-1" stroke="none" stroke-width="1" fill="none" fill-rule="evenodd">
        <g id="个人中心-copy-4" transform="translate(-26.000000, -628.000000)">
            <g id="Group-2" transform="translate(26.000000, 628.000000)">
                <rect id="Rectangle-3" fill="#FFFFFF" x="0" y="0" width="24" height="24"></rect>
                <circle id="Oval-Copy-6" fill="#00D9B4" cx="13.5" cy="9.5" r="4.5"></circle>
                <g id="会员扩展-copy-2" transform="translate(4.000000, 5.000000)" fill="#000000" fill-rule="nonzero">
                    <path d="M8.16304047,9.97067308 C9.43211236,9.32163462 10.28477,8.11875 10.28477,6.74134616 C10.28477,4.67596155 8.36629027,3 5.99834755,3 C3.63040482,3 1.71357751,4.67451923 1.71357751,6.74134616 C1.71357751,8.11875001 2.56623518,9.32163462 3.83530707,9.97067308 C1.60947397,10.6024038 0,12.4283654 0,14.5817308 L0,15 L12,15 L12,14.5817308 C12,12.4283654 10.390526,10.6024038 8.16304047,9.97067308 Z M2.77113742,6.74134616 C2.77113742,5.98846154 3.1065822,5.28173078 3.71633159,4.74951924 C4.32608098,4.21730769 5.1374277,3.92451923 5.99834756,3.92451923 C6.85926743,3.92451923 7.67061415,4.21730769 8.28036354,4.74951924 C8.89011292,5.28173078 9.2255577,5.98990385 9.2255577,6.74134616 C9.2255577,7.49278847 8.89176534,8.20096154 8.28201597,8.73317308 C7.67226658,9.26538463 6.86091986,9.55817309 5.99999999,9.55817309 C5.13908013,9.55817309 4.32773341,9.26538461 3.71798402,8.73317308 C3.10823465,8.20096154 2.77113742,7.49423078 2.77113742,6.74134616 Z M10.9060865,14.0769231 L1.09391351,14.0769231 C1.14513907,13.725 1.25089506,13.3831731 1.40952905,13.0543269 C1.63591296,12.5870192 1.95979068,12.1673077 2.37455246,11.8067308 C2.78766179,11.4461538 3.26852107,11.1634615 3.80391077,10.9644231 C4.35747728,10.7596154 4.94739741,10.6557692 5.55384192,10.6557692 L6.44450564,10.6557692 C7.05260258,10.6557692 7.64087028,10.7596154 8.19443679,10.9644231 C8.72982649,11.1620192 9.21068575,11.4447115 9.6237951,11.8067308 C10.0369044,12.1673077 10.3607821,12.5870192 10.5888185,13.0543269 C10.7491049,13.3831731 10.8548609,13.725 10.9060865,14.0769231 Z" id="Shape"></path>
                    <path d="M12.2318788,6.96983536 C13.4781825,6.3208749 14.3155427,5.11813484 14.3155427,3.74089653 C14.3171655,1.67431799 12.4314821,0 10.1076451,0 C8.87756942,0 7.76920303,0.470135801 7,1.2171614 C7.10710422,1.25033048 7.21258564,1.28638385 7.31806708,1.32532147 C7.55499459,1.4147338 7.78218536,1.51712534 7.99963939,1.63538037 C8.58059865,1.17389738 9.32221422,0.922965997 10.1076452,0.922965997 C10.9547422,0.922965997 11.7499099,1.21571927 12.3487198,1.74786686 C12.9475298,2.28001444 13.2769564,2.9881024 13.2769564,3.73945441 C13.2769564,4.49080642 12.9475297,5.2003365 12.3487198,5.73248407 C11.8245582,6.19829348 11.1478543,6.48095181 10.4192211,6.54440572 C10.3315903,6.92945559 10.1904075,7.3029684 9.99891813,7.65629131 L10.5457988,7.65629131 C11.1429859,7.65629131 11.7206996,7.76012499 12.2643347,7.96490806 C12.790119,8.16248047 13.2623512,8.4451388 13.668049,8.80711453 C14.0737468,9.16764811 14.3918139,9.58730922 14.6157591,10.0545608 C14.7715471,10.3833674 14.8754057,10.7251532 14.9257122,11.077034 L11.6265777,11.077034 C11.7791201,11.3755558 11.9024522,11.6841726 11.9965741,12 L16,12 L16,11.581781 C16,9.4272323 14.4194014,7.6014902 12.2318788,6.96983536 Z" id="Shape"></path>
                </g>
            </g>
        </g>
    </g>
</svg>