<?xml version="1.0" encoding="UTF-8"?>
<svg width="24px" height="24px" viewBox="0 0 24 24" version="1.1" xmlns="http://www.w3.org/2000/svg" xmlns:xlink="http://www.w3.org/1999/xlink">
    <!-- Generator: Sketch 50.2 (55047) - http://www.bohemiancoding.com/sketch -->
    <title>我的积分icon</title>
    <desc>Created with Sketch.</desc>
    <defs></defs>
    <g id="Page-1" stroke="none" stroke-width="1" fill="none" fill-rule="evenodd">
        <g id="个人中心-copy-4" transform="translate(-26.000000, -470.000000)">
            <g id="我的积分icon" transform="translate(26.000000, 470.000000)">
                <rect id="Rectangle-2" fill="#FFFFFF" x="0" y="0" width="24" height="24"></rect>
                <circle id="Oval-Copy-5" fill="#00D9B4" cx="13.5" cy="13.5" r="4.5"></circle>
                <g id="积分3-copy" transform="translate(5.000000, 5.000000)" fill="#000000" fill-rule="nonzero">
                    <path d="M0.824805322,16 C0.740060892,16 0.654074234,15.9810208 0.572599751,15.9419481 C0.291384881,15.8024263 0.174215057,15.4631937 0.311497751,15.1809169 C0.34048879,15.1172388 0.617246307,14.5470042 1.02796179,13.747978 C0.692071307,12.8574717 -0.344755555,9.79084196 0.116178177,7.01324774 C0.593808686,4.12519419 2.82361577,1.98366807 6.56559675,0.821936353 C9.54979187,-0.105395817 15.2001576,-0.000489613461 15.4401054,0.00731031376 C15.6565791,0.0118039385 15.8530131,0.139032182 15.9445166,0.334231174 C16.0382305,0.530654027 16.0114681,0.762806752 15.877565,0.932450479 C15.8608134,0.952580497 14.2604607,2.99698206 13.9959244,4.67528049 C13.924552,5.13509228 13.9144864,5.71318158 13.9044756,6.3269094 C13.8754481,8.11694584 13.839771,10.3443807 12.273981,12.0227157 C10.1747524,14.2724908 4.74537252,14.0079876 4.51432108,13.9957306 C4.19962128,13.9778474 3.95857735,13.7089784 3.97529242,13.393109 C3.99204402,13.0784086 4.25542949,12.8351314 4.57685186,12.8530146 C5.99869137,12.935544 9.99841308,12.7883319 11.4380454,11.2438012 C12.7046998,9.88683397 12.73486,7.98522395 12.7616589,6.30796673 C12.7728388,5.65512969 12.7828496,5.0369265 12.866571,4.49679561 C13.0585293,3.28709531 13.7806015,1.9903537 14.3285266,1.14671999 C12.5362705,1.16127862 8.95829801,1.27400303 6.90481196,1.91343222 C3.5568314,2.95235626 1.65175316,4.73112208 1.24330289,7.19964212 C0.938650396,9.03649636 1.39178376,11.0864327 1.76784518,12.3508604 C2.44638522,11.1032017 3.2576958,9.71499822 3.96193866,8.7954477 C5.26430659,7.09471764 7.89582312,5.17752604 8.00749433,5.09720694 C8.26192857,4.91192682 8.62127493,4.96888269 8.80545112,5.22443518 C8.99070512,5.47889165 8.93374604,5.83593446 8.67819746,6.0211963 C8.65251289,6.0412715 6.06896769,7.92280633 4.86922837,9.4895677 C3.95857737,10.6802157 2.81579712,12.7804772 2.08259977,14.2011042 L1.33593901,15.6853362 C1.23553908,15.8839693 1.03464783,16 0.824805322,16 Z" id="Shape"></path>
                </g>
            </g>
        </g>
    </g>
</svg>