<?xml version="1.0" encoding="UTF-8"?>
<svg width="24px" height="24px" viewBox="0 0 24 24" version="1.1" xmlns="http://www.w3.org/2000/svg" xmlns:xlink="http://www.w3.org/1999/xlink">
    <!-- Generator: Sketch 50.2 (55047) - http://www.bohemiancoding.com/sketch -->
    <title>我的战绩icon</title>
    <desc>Created with Sketch.</desc>
    <defs></defs>
    <g id="Page-1" stroke="none" stroke-width="1" fill="none" fill-rule="evenodd">
        <g id="个人中心-copy-4" transform="translate(-26.000000, -312.000000)">
            <g id="我的战绩icon" transform="translate(26.000000, 312.000000)">
                <rect id="Rectangle" fill="#FFFFFF" x="0" y="0" width="24" height="24"></rect>
                <circle id="Oval-Copy-4" fill="#00D9B4" cx="15.5" cy="14.5" r="4.5"></circle>
                <g id="收益规则-copy" transform="translate(4.000000, 3.000000)" fill="#25222D" fill-rule="nonzero">
                    <path d="M0.487446106,12 C0.274454101,12 0.0614620964,11.8449003 0.00821409935,11.5864009 C-0.0450338977,11.3279014 0.167958107,11.069402 0.434198109,11.0177021 C5.70575021,10.1388039 10.3915743,6.67491125 12.8409823,1.76342162 C12.8942303,1.60832194 13.0007264,1.45322228 13.0539743,1.2981226 C13.1604703,1.03962315 13.4799584,0.936223363 13.6929504,1.03962315 C13.9591904,1.14302293 14.0656864,1.45322228 13.9591904,1.66002184 C13.9059424,1.81512152 13.7994464,1.97022118 13.7461984,2.12532086 C11.1370463,7.29530994 6.18498222,10.9660022 0.5939421,11.9483001 C0.540694103,12 0.487446106,12 0.487446106,12 Z" id="Shape"></path>
                    <path d="M14.3286686,3 C14.0365187,3 13.7443688,2.85292099 13.6713314,2.60778931 L13.0139941,0.548683212 C12.9409566,0.303551537 13.160069,0.058419861 13.5252564,0.0093935289 C13.8904438,-0.0396328032 14.2556312,0.107446193 14.3286686,0.352577869 L14.9860059,2.46071032 C15.0590434,2.70584199 14.839931,2.95097367 14.4747436,3 L14.3286686,3 Z" id="Shape"></path>
                    <path d="M12.3031867,1.67687299 C12.0858177,1.67687299 11.8684488,1.51780938 11.8141065,1.30572458 C11.705422,1.04061858 11.8684487,0.775512579 12.14016,0.669470186 L14.3138497,0.0332157757 C14.5855609,-0.0728266177 14.8572722,0.0862369724 14.9659566,0.351342973 C15.0746411,0.616448973 14.9116144,0.881554973 14.6399032,0.987597383 L12.4662134,1.62385179 C12.4118712,1.62385179 12.357529,1.67687299 12.3031867,1.67687299 Z M14.3138497,17 C14.0421385,17 13.8247695,16.7879152 13.8247695,16.5228092 L13.8247695,5.81252665 C13.8247695,5.54742065 14.0421385,5.33533584 14.3138497,5.33533584 C14.585561,5.33533584 14.8029299,5.54742065 14.8029299,5.81252665 L14.8029299,16.5228092 C14.8029299,16.7879152 14.5855609,17 14.3138497,17 Z M10.0208125,17 C9.74910124,17 9.53173227,16.7879152 9.53173227,16.5228092 L9.53173227,10.0012015 C9.53173227,9.7360955 9.74910124,9.5240107 10.0208125,9.5240107 C10.2925237,9.5240107 10.5098927,9.7360955 10.5098927,10.0012015 L10.5098927,16.5228092 C10.5642349,16.7879152 10.3468659,17 10.0208125,17 Z M5.78211746,17 C5.51040625,17 5.29303727,16.7879152 5.29303725,16.5228092 L5.29303725,13.0234099 C5.29303725,12.7583039 5.51040623,12.5462191 5.78211746,12.5462191 C6.05382869,12.5462191 6.27119765,12.7583039 6.27119765,13.0234099 L6.27119765,16.5228092 C6.27119765,16.7879152 6.05382868,17 5.78211746,17 Z M1.48908019,17 C1.21736898,17 1,16.7879152 1,16.5228092 L1,14.2428976 C1,13.9777916 1.21736898,13.7657068 1.48908019,13.7657068 C1.76079141,13.7657068 1.97816038,13.9777916 1.9781604,14.2428976 L1.9781604,16.5228092 C1.9781604,16.7879152 1.76079142,17 1.48908019,17 Z" id="Shape"></path>
                </g>
            </g>
        </g>
    </g>
</svg>